<svg id="Group_1" data-name="Group 1" xmlns="http://www.w3.org/2000/svg" width="45.295" height="45.295" viewBox="0 0 45.295 45.295">
  <circle id="Ellipse_1119" data-name="Ellipse 1119" cx="7.581" cy="7.581" r="7.581" transform="translate(15.067 15.161)" fill="#fff"/>
  <path id="Path_6705" data-name="Path 6705" d="M110.805,89.672a21.766,21.766,0,0,0-1.042-5.4,10.2,10.2,0,0,0-2.558-3.98,11.41,11.41,0,0,0-3.98-2.559,16.044,16.044,0,0,0-5.4-1.042c-2.559-.189-3.317-.189-9.476-.189s-6.917,0-9.476.189a21.763,21.763,0,0,0-5.4,1.042,10.2,10.2,0,0,0-3.98,2.559,11.411,11.411,0,0,0-2.558,3.98,16.045,16.045,0,0,0-1.042,5.4c-.189,2.369-.189,3.222-.189,9.476,0,6.159,0,6.917.189,9.476a21.765,21.765,0,0,0,1.042,5.4A9.235,9.235,0,0,0,69.49,118a11.411,11.411,0,0,0,3.98,2.558,16.045,16.045,0,0,0,5.4,1.042c2.369.19,3.222.19,9.476.19s6.917,0,9.476-.19a21.766,21.766,0,0,0,5.4-1.042A10.2,10.2,0,0,0,107.2,118a11.411,11.411,0,0,0,2.558-3.98,16.045,16.045,0,0,0,1.042-5.4c.189-2.369.189-3.222.189-9.476C110.995,92.988,110.995,92.23,110.805,89.672ZM88.347,110.9A11.655,11.655,0,1,1,100,99.242,11.77,11.77,0,0,1,88.347,110.9Zm12.129-21.131a2.748,2.748,0,0,1,0-5.5,2.88,2.88,0,0,1,2.748,2.748A2.813,2.813,0,0,1,100.477,89.766Z" transform="translate(-65.7 -76.5)" fill="#fff"/>
</svg>
