<svg xmlns="http://www.w3.org/2000/svg" width="209.154" height="209" viewBox="0 0 209.154 209">
  <g id="Group_5" data-name="Group 5" transform="translate(-461.629 -19.378)">
    <g id="Group_4" data-name="Group 4" transform="translate(461.629 19.378)">
      <path id="Path_6707" data-name="Path 6707" d="M502.615,29.185a3.447,3.447,0,0,0-2.814-.318c-1.593.687-1.861,3-1.911,3.439-.545,4.719,7.564,10.623,14.04,13.958,11.066,5.7,13.921,4.762,17.078,9.66,2.773,4.3,2.693,9.344,1.575,15.931-2.361,13.917-6.141,16.819-3.937,20.469,2.486,4.114,9.539,4.141,13.342,4.155,3.775.014,10.85.041,13.124-3.937,1.984-3.468-1.23-6.144-4.591-20.612-.109-.47-.229-1.016-.332-1.668a28.4,28.4,0,0,1,.332-10.307,29.331,29.331,0,0,1,1.162-4.032,23.317,23.317,0,0,1,3.075-6.005,17.789,17.789,0,0,1,4.735-4.153c4.85-3.18,11.141-6.614,16.685-14.815.748-1.105.357-3.2-1.354-4.425-1.525-1.095-3.646-.307-3.964-.184q-2.2,1.931-4.405,3.861a49.625,49.625,0,0,1-11.232,6.566,49.5,49.5,0,0,1-18.242,3.848,49.354,49.354,0,0,1-21.044-4.361A49.677,49.677,0,0,1,502.615,29.185Z" transform="translate(-433.161 -14.212)" fill="#a4c8de"/>
      <path id="Path_6708" data-name="Path 6708" d="M532.753,31.51c-.593,6.187-5.237,10.807-10.373,10.314s-8.818-5.907-8.225-12.1,5.236-10.807,10.371-10.314S533.346,25.321,532.753,31.51Z" transform="translate(-420.412 -19.378)" fill="#a4c8de"/>
      <path id="Path_6709" data-name="Path 6709" d="M464.472,113.464a3.449,3.449,0,0,0-1.171,2.578c.161,1.727,2.279,2.695,2.68,2.88,4.321,1.975,12.441-3.911,17.614-9.041,8.837-8.764,8.832-11.767,14.465-13.257,4.948-1.309,9.719.327,15.639,3.425,12.507,6.546,14.1,11.037,18.249,10.069,4.682-1.093,6.887-7.793,8.075-11.4,1.18-3.586,3.391-10.3.313-13.7-2.686-2.959-6.225-.729-21.022-2-.48-.041-1.036-.1-1.689-.2a28.4,28.4,0,0,1-9.7-3.5,29.333,29.333,0,0,1-3.477-2.352,23.441,23.441,0,0,1-4.762-4.78,17.794,17.794,0,0,1-2.486-5.789c-1.525-5.593-2.846-12.639-8.935-20.447-.82-1.052-2.928-1.325-4.625-.079-1.512,1.112-1.42,3.373-1.4,3.714q1.154,2.689,2.311,5.382a49.341,49.341,0,0,1-20.08,58.5Z" transform="translate(-460.324 0.783)" fill="#a4c8de"/>
      <path id="Path_6710" data-name="Path 6710" d="M476.328,60.511c5.7,2.477,8.659,8.319,6.6,13.051s-8.343,6.56-14.044,4.086-8.66-8.321-6.605-13.053S470.625,58.034,476.328,60.511Z" transform="translate(-461.629 12.07)" fill="#a4c8de"/>
      <path id="Path_6711" data-name="Path 6711" d="M531.3,171.142a3.459,3.459,0,0,0,2.091,1.911c1.693.38,3.268-1.334,3.568-1.661,3.214-3.5.125-13.039-3.155-19.544-5.6-11.112-8.462-12.035-8.139-17.853.286-5.111,3.316-9.144,8.091-13.816,10.091-9.873,14.855-10,15.215-14.244.409-4.791-5.282-8.959-8.351-11.2-3.045-2.23-8.751-6.41-12.932-4.528-3.643,1.639-2.616,5.694-8.4,19.374-.187.443-.412.955-.714,1.543a28.324,28.324,0,0,1-6.325,8.143,29.437,29.437,0,0,1-3.311,2.58,23.424,23.424,0,0,1-6.018,3.052,17.782,17.782,0,0,1-6.273.575c-5.791-.277-12.9-1.2-22.208,2.178-1.254.455-2.166,2.377-1.5,4.377.589,1.78,2.768,2.391,3.1,2.478l5.834-.536A49.338,49.338,0,0,1,531.3,171.142Z" transform="translate(-452.919 35.893)" fill="#a4c8de"/>
      <path id="Path_6712" data-name="Path 6712" d="M486.58,124.373c4.116-4.659,10.587-5.666,14.453-2.248s3.662,9.962-.455,14.621-10.589,5.664-14.455,2.248S482.462,129.03,486.58,124.373Z" transform="translate(-444.562 59.752)" fill="#a4c8de"/>
      <path id="Path_6713" data-name="Path 6713" d="M602.165,128.309a3.446,3.446,0,0,0,2.462-1.4c.886-1.493-.257-3.52-.475-3.905-2.334-4.139-12.362-4.15-19.564-3.039-12.3,1.9-14.062,4.328-19.494,2.223-4.771-1.85-7.671-5.978-10.639-11.964-6.271-12.648-4.918-17.217-8.846-18.872-4.43-1.87-10.151,2.255-13.237,4.48-3.062,2.207-8.8,6.343-8.3,10.9.434,3.973,4.609,4.248,15.83,13.978.364.314.782.687,1.248,1.155a28.389,28.389,0,0,1,5.791,8.53,29.757,29.757,0,0,1,1.429,3.946,23.343,23.343,0,0,1,1.043,6.668,17.813,17.813,0,0,1-1.391,6.143c-2.054,5.423-5.125,11.9-4.789,21.794.045,1.334,1.589,2.794,3.7,2.784,1.877-.011,3.13-1.895,3.314-2.182q.648-2.855,1.295-5.712a49.329,49.329,0,0,1,50.63-35.525Z" transform="translate(-412.597 36.797)" fill="#a4c8de"/>
      <path id="Path_6714" data-name="Path 6714" d="M550.1,134.083c-3.159-5.355-2.116-11.821,2.328-14.44s10.6-.4,13.764,4.952,2.114,11.821-2.328,14.44S553.258,139.438,550.1,134.083Z" transform="translate(-393.557 58.529)" fill="#a4c8de"/>
      <path id="Path_6715" data-name="Path 6715" d="M588.575,46.985a3.444,3.444,0,0,0-.57-2.775c-1.145-1.3-3.427-.843-3.861-.755-4.657.941-7.766,10.476-8.935,17.667-2,12.283-.229,14.712-3.911,19.228-3.234,3.966-8.055,5.448-14.665,6.421-13.966,2.055-17.894-.643-20.683,2.58-3.145,3.636-.991,10.351.172,13.973,1.153,3.594,3.314,10.33,7.8,11.266,3.912.814,5.464-3.07,18.185-10.737.411-.248.895-.53,1.484-.829a28.378,28.378,0,0,1,9.9-2.871,29.322,29.322,0,0,1,4.194-.139,23.367,23.367,0,0,1,6.662,1.068,17.807,17.807,0,0,1,5.412,3.221c4.523,3.628,9.734,8.553,19.247,11.291,1.282.37,3.15-.648,3.789-2.655.569-1.787-.834-3.562-1.05-3.827q-2.515-1.5-5.034-3a49.334,49.334,0,0,1-18.14-59.13Z" transform="translate(-404.524 -0.58)" fill="#a4c8de"/>
    </g>
    <path id="Path_6716" data-name="Path 6716" d="M579.446,72.638c-6.069,1.348-11.9-1.641-13.016-6.678s2.894-10.21,8.962-11.558,11.9,1.639,13.016,6.677S585.514,71.29,579.446,72.638Z" transform="translate(82.189 27.261)" fill="#a4c8de"/>
  </g>
</svg>
