<svg xmlns="http://www.w3.org/2000/svg" viewBox="0 0 137.068 95.784">
  <defs>
    <style>
      .cls-1 {
        fill: #2e3192;
      }

      .cls-2 {
        fill: #fcaf17;
      }

      .cls-3 {
        fill: #f26522;
      }
    </style>
  </defs>
  <g id="VnW-Logo" transform="translate(-44.594 -80.7)">
    <g id="Group_120" data-name="Group 120" transform="translate(44.594 80.7)">
      <path id="Path_81" data-name="Path 81" class="cls-1" d="M158.672,144.592a6.9,6.9,0,1,0-6.872-6.872A6.814,6.814,0,0,0,158.672,144.592Z" transform="translate(-100.636 -106.89)"/>
      <path id="Path_82" data-name="Path 82" class="cls-1" d="M200.347,215.9A6.906,6.906,0,0,0,194,220.148h12.647A7.019,7.019,0,0,0,200.347,215.9Z" transform="translate(-122.696 -151.376)"/>
      <path id="Path_83" data-name="Path 83" class="cls-1" d="M276.32,229.792a6.9,6.9,0,1,0-6.92-6.872A6.884,6.884,0,0,0,276.32,229.792Z" transform="translate(-162.112 -151.428)"/>
      <path id="Path_84" data-name="Path 84" class="cls-1" d="M299.627,137.7a3.627,3.627,0,1,0,3.627,3.627A3.625,3.625,0,0,0,299.627,137.7Z" transform="translate(-176.017 -110.497)"/>
      <path id="Path_85" data-name="Path 85" class="cls-1" d="M137.421,98.12a6.287,6.287,0,0,0-.382-2.1,10.125,10.125,0,0,0,1.145-4.82,10.474,10.474,0,0,0-20.569-2.816H109.5a5.85,5.85,0,0,0-5.011,2.816c-.62-.048-1.241-.1-1.909-.1a20.111,20.111,0,0,0-11.549,3.627c-.286-.239-.573-.477-.907-.716l-6.634-4.1a6.089,6.089,0,0,0-3.1-.859,5.938,5.938,0,0,0-5.011,2.768l-6.634,10.738L62.112,91.82A5.829,5.829,0,0,0,57.1,89.052a6.219,6.219,0,0,0-3.1.859l-6.634,4.1A5.75,5.75,0,0,0,44.74,97.69a6.02,6.02,0,0,0,.716,4.438l18.135,29.351-5.154,2.291A5.9,5.9,0,0,0,55.43,141.5l13.077,29.78a5.9,5.9,0,0,0,5.393,3.532h0a5.9,5.9,0,0,0,5.393-3.532l4.2-9.593,4.2,9.593a5.9,5.9,0,0,0,5.393,3.532h0a5.9,5.9,0,0,0,5.393-3.532l4.1-9.354a20.491,20.491,0,0,0,19.567,14.556h1.145a5.866,5.866,0,0,0,5.87-5.87v-7.54h3.77a5.948,5.948,0,0,0,1.67,3.579l5.345,5.393a5.848,5.848,0,0,0,4.152,1.718h0a5.848,5.848,0,0,0,4.152-1.718l1.479-1.479a20.463,20.463,0,1,0,8.972-38.848,8.092,8.092,0,0,0-1.05.048v-2.72a7.292,7.292,0,0,0,1.718-.334,5.966,5.966,0,0,0,3.818-4.534,13,13,0,0,0,4.725.907,5.98,5.98,0,0,0,3.818,1.432h4.057a5.866,5.866,0,0,0,5.87-5.87V102.462a5.866,5.866,0,0,0-5.87-5.87h-4.057a5.853,5.853,0,0,0-3.866,1.432,13.681,13.681,0,0,0-6.777,1.957,5.905,5.905,0,0,0-3.723-1.336h-4.057a6.014,6.014,0,0,0-2.911.764l-2.529-3.293a5.858,5.858,0,0,0-10.4,3.723Zm5.918,1.718,10.118,12.218v-7.636h3.2a13.461,13.461,0,0,0,.859,15.367v3.341L147.4,110.957v7.636h-4.057Zm-11.788,25.1h-7.684V98.12h7.684Zm-3.818-38.323a4.582,4.582,0,1,1-4.582,4.582A4.494,4.494,0,0,1,127.733,86.618ZM109.55,98.74V94.206h7.684v34.553H109.55v-4.486a13.838,13.838,0,0,1-6.92,1.814A14.522,14.522,0,0,1,88.074,111.53a14.816,14.816,0,0,1,.525-3.866l3.484-5.584a7.767,7.767,0,0,0,.525-1.1,14.561,14.561,0,0,1,10.022-4.009A13.94,13.94,0,0,1,109.55,98.74Zm-52.4-3.866,11.645,18.851L80.438,94.874,86.69,98.74a20.3,20.3,0,0,0-3.484,6.491L68.793,128.52,50.515,98.979ZM93.133,168.9,83.54,147.037,73.947,168.9l-13.077-29.78,6.92-3.1,6.156,14.079,9.593-21.858,9.593,21.858,6.156-14.079,6.92,3.1-.334.716a19.877,19.877,0,0,0-3.77,8.638Zm22.287-11.74a7,7,0,0,0,6.777,5.775h1.145v7.636H122.2a14.522,14.522,0,0,1-14.556-14.556v-3.866a13.018,13.018,0,0,1,.143-1.957l3.245-7.35a14.572,14.572,0,0,1,25.771,9.306v4.1l-.907.907ZM158.8,137.588a14.58,14.58,0,1,1-9.736,25.437l-4.868,4.868-5.25-5.25a5.692,5.692,0,0,0,3.388-3.627l1.814-1.814V129.141h7.684V139.4A14.153,14.153,0,0,1,158.8,137.588Zm17.085-16.99h-4.057v-2.339a7.091,7.091,0,0,1-3.627.954,7.532,7.532,0,0,1-4.82-1.718V105.565a7.809,7.809,0,0,1,4.82-1.718,7.091,7.091,0,0,1,3.627.954v-2.386h4.057Z" transform="translate(-44.594 -80.7)"/>
    </g>
    <g id="Group_124" data-name="Group 124" transform="translate(50.515 86.666)">
      <g id="Group_121" data-name="Group 121" transform="translate(0 0)">
        <path id="Path_86" data-name="Path 86" class="cls-2" d="M75.279,129.251,86.923,110.4l6.634,4.1L75.279,144.046,57,114.5l6.634-4.1Z" transform="translate(-57 -102.191)"/>
        <path id="Path_87" data-name="Path 87" class="cls-2" d="M164.86,109.1v34.553h-7.684v-4.486a13.837,13.837,0,0,1-6.92,1.814,14.58,14.58,0,0,1,0-29.16,13.971,13.971,0,0,1,6.92,1.814V109.1Zm-21.476,17.324a6.9,6.9,0,0,0,13.792,0,6.925,6.925,0,0,0-6.92-6.92A6.854,6.854,0,0,0,143.384,126.424Z" transform="translate(-98.141 -101.512)"/>
        <path id="Path_88" data-name="Path 88" class="cls-2" d="M213.782,102.363a4.582,4.582,0,1,1,4.582-4.582A4.614,4.614,0,0,1,213.782,102.363Zm3.818,29.112h-7.684V104.654H217.6Z" transform="translate(-136.563 -93.2)"/>
      </g>
      <g id="Group_123" data-name="Group 123" transform="translate(10.404 41.616)">
        <g id="Group_122" data-name="Group 122">
          <path id="Path_89" data-name="Path 89" class="cls-2" d="M91.877,202.258l9.593-21.858,9.593,21.858,6.156-14.079,6.92,3.1-13.077,29.78L101.469,199.2l-9.593,21.858L78.8,191.281l6.92-3.1Z" transform="translate(-78.8 -180.4)"/>
          <path id="Path_90" data-name="Path 90" class="cls-2" d="M191.256,225.242H192.4v7.636h-1.145A14.522,14.522,0,0,1,176.7,218.322v-3.866a14.58,14.58,0,0,1,29.16,0v5.011H184.479A6.911,6.911,0,0,0,191.256,225.242Zm.048-17.706a6.906,6.906,0,0,0-6.347,4.248H197.6A7.018,7.018,0,0,0,191.3,207.536Z" transform="translate(-129.978 -190.594)"/>
          <path id="Path_91" data-name="Path 91" class="cls-2" d="M262.049,190.6a14.58,14.58,0,1,1-9.736,25.437l-4.868,4.868-5.345-5.393,5.345-5.345V182.1h7.684v10.261A14.321,14.321,0,0,1,262.049,190.6Zm-6.92,14.6a6.92,6.92,0,1,0,6.92-6.92A6.884,6.884,0,0,0,255.129,205.2Z" transform="translate(-164.166 -181.289)"/>
        </g>
      </g>
    </g>
    <g id="Group_125" data-name="Group 125" transform="translate(143.339 99.885)">
      <path id="Path_92" data-name="Path 92" class="cls-3" d="M265.674,144.19l-10.118-12.218v7.636H251.5V120.9l10.118,12.218v-7.636h4.057Z" transform="translate(-251.5 -120.9)"/>
      <path id="Path_93" data-name="Path 93" class="cls-3" d="M302.867,126.2v18.183h-4.057v-2.338a7.091,7.091,0,0,1-3.627.954,7.684,7.684,0,1,1,0-15.367,7.091,7.091,0,0,1,3.627.954V126.2Zm-11.311,9.115a3.627,3.627,0,1,0,3.627-3.627A3.625,3.625,0,0,0,291.557,135.315Z" transform="translate(-270.319 -123.671)"/>
    </g>
  </g>
</svg>
