<svg xmlns="http://www.w3.org/2000/svg" width="399" height="340.672" viewBox="0 0 399 340.672">
  <g id="Group_3" data-name="Group 3" transform="translate(-42.063 -120.717)">
    <path id="Path_6706" data-name="Path 6706" d="M173.133,299.869c-12.329-5.18-22.324,4-22.324,12.256,0,10.851,14.973,26.93,22.762,33.7,33.622,29.244,84.2,27.429,117.31-1.751,6.208-5.471,21.011-23.659,21.011-31.954a14.107,14.107,0,0,0-14.445-14.445c-16.488,0-23.224,40.271-66.534,40.271C189.771,337.951,182.246,304.848,173.133,299.869Zm58.655-147.95C160.416,83.464,44.281,135.748,42.128,230.3c-.526,23.094-1.472,97.5,155.518,210.083,7.477,5.362,25.431,21.011,34.142,21.011a14.458,14.458,0,0,0,14.445-14.445c0-9.489-10.139-15.118-17.071-19.7C171.051,388.852,70.706,305.117,70.706,232.9c0-45.778,38.237-82.292,83.605-82.292,53.291,0,64.75,38.52,77.477,38.52,13.138,0,27.185-38.52,77.915-38.52,68.549,0,75.726,57.561,89.514,62.594,7.225,2.638,19.041.481,19.041-7.879,0-10.684-15.466-36.039-22.762-44.21C350.749,111,282.031,107.95,231.788,151.919Zm159.988,89.3c-8.754,13.569-16.2,21.448-21.448,32.829-7.167,15.528,16.16,25.76,22.233,38.3,2.863,5.911-.5,11.249-2.39,18.167-4.777,17.443-36.769,59.238-56.351,68.782-6.03,2.939-13.717-.307-17.538-2.295a60.9,60.9,0,0,1-8.46-7.456l.031-.028c-.491-.474-8.779-9.559-17.923-7.009-9.209,2.618-28.157,22.567-34.137,30.5-2.941,8.835.626,24.17,13.158,34.344,7.412,6.019,15.682,9.943,25.622,10.446,18.666.944,71.177-35.123,101.806-78.867S448.2,282.71,438.824,261.535c-4.064-9.183-14.275-18.821-18.431-22.341C408.847,233.335,397.108,232.949,391.776,241.214Z" fill="#74b5e5"/>
  </g>
</svg>
